<?xml version="1.0" encoding="UTF-8"?>
<svg version="1.1" id="Capa_1" xmlns="http://www.w3.org/2000/svg" xmlns:xlink="http://www.w3.org/1999/xlink" x="0px" y="0px"
     viewBox="0 0 50.899 50.899" xml:space="preserve">
  <path d="M50.146,0.202c-0.252-0.19-0.578-0.251-0.878-0.162L18.688,8.844c-0.429,0.123-0.724,0.515-0.724,0.961v33.153
    c-0.677,1.932-3.197,3.959-6.337,5.079c-4.581,1.636-8.506,0.732-9.16-1.1c-0.326-0.915,0.092-2.125,1.146-3.319
    c1.213-1.373,3.077-2.556,5.249-3.331c1.636-0.583,3.285-0.895,4.817-0.858c0.548-0.014,1.007-0.433,1.015-0.985
    c0.008-0.552-0.434-1.006-0.985-1.015c-1.771-0.033-3.662,0.312-5.518,0.975c-2.485,0.887-4.644,2.268-6.076,3.89
    c-1.574,1.783-2.117,3.67-1.53,5.315c0.757,2.124,3.242,3.29,6.395,3.29c1.642,0,3.465-0.316,5.319-0.978
    c3.837-1.369,6.828-3.924,7.621-6.511c0.029-0.095,0.044-0.194,0.044-0.293V18.844l24.024-6.917
    c0.531-0.153,0.837-0.707,0.685-1.238c-0.152-0.529-0.706-0.839-1.237-0.684l-23.472,6.758v-6.205L48.545,2.33v31.824
    c-0.677,1.932-3.197,3.958-6.337,5.079c-4.582,1.634-8.505,0.732-9.16-1.1c-0.326-0.915,0.092-2.125,1.146-3.319
    c1.213-1.373,3.077-2.556,5.249-3.331c1.579-0.563,3.186-0.86,4.659-0.86c0.058,0,0.118,0.005,0.173,0.001
    c0.546,0,0.992-0.438,1-0.985c0.008-0.552-0.434-1.006-0.985-1.015c-1.757-0.028-3.662,0.312-5.519,0.975
    c-2.485,0.887-4.643,2.268-6.076,3.89c-1.574,1.783-2.117,3.67-1.53,5.315c1.15,3.229,6.299,4.245,11.715,2.312
    c3.837-1.37,6.828-3.925,7.621-6.511c0.029-0.095,0.044-0.194,0.044-0.293V1.001C50.545,0.687,50.397,0.391,50.146,0.202z"/>
</svg>
